<svg xmlns="http://www.w3.org/2000/svg" width="256" height="256" viewBox="0 0 256 256">
	<rect width="256" height="256" rx="48" fill="#00587A"/>
	<g transform="translate(48 47.2) scale(6.6667)" fill="#ffffff">
		<path d="m11.99 21.51h-4.06l-3.84-7.49-0.78 1.37v6.12h-3.31v-18.71h3.31v8.47l4.59-8.47h3.84l-5.02 8.66z"/>
		<path d="m24 15.76q0 1.39-0.43 2.46-0.43 1.07-1.15 1.76-0.86 0.83-1.89 1.19-1.02 0.35-2.61 0.35h-5.39v-18.74h4.5q1.67 0 2.5 0.15 0.83 0.15 1.58 0.63 0.84 0.54 1.22 1.4 0.38 0.84 0.38 2.02 0 1.34-0.56 2.28-0.55 0.93-1.47 1.49v0.1q1.54 0.39 2.43 1.68 0.89 1.27 0.89 3.23zm-3.4-8.45q0-0.68-0.19-1.14-0.18-0.47-0.59-0.76-0.48-0.34-1.16-0.42-0.68-0.09-1.7-0.09h-2.41v5.41h2.62q0.95 0 1.51-0.11 0.56-0.13 1.04-0.5 0.48-0.38 0.68-0.97 0.2-0.6 0.2-1.42zm1.3 8.54q-0.01-1.13-0.28-1.8-0.27-0.66-1-1.13-0.5-0.31-1.2-0.4-0.69-0.1-1.7-0.1h-3.17v6.97h2.67q1.33 0 2.18-0.17 0.85-0.17 1.38-0.62 0.58-0.49 0.84-1.12 0.28-0.63 0.28-1.63z"/>
	</g>
</svg>
